<svg width="999" height="552" viewBox="0 0 999 552" fill="none" xmlns="http://www.w3.org/2000/svg">
<rect x="4.18678" y="2.5" width="991.212" height="546.801" rx="72.5" fill="#8CBFD2" fill-opacity="0.4" stroke="black" stroke-width="5"/>
<path d="M91.4913 63.4593C91.4913 53.2093 98.3913 45.3593 109.591 45.3593C119.441 45.3593 125.941 50.7593 126.991 59.4593H118.991C118.191 54.8093 114.491 52.3593 109.691 52.3593C103.541 52.3593 99.4913 56.2093 99.4913 63.4593C99.4913 70.7593 103.541 74.6093 109.691 74.6093C114.491 74.6093 118.191 72.1093 118.991 67.4593H126.991C125.941 76.2093 119.441 81.6093 109.591 81.6093C98.3913 81.6093 91.4913 73.7593 91.4913 63.4593ZM130.218 74.2093C130.218 69.8593 132.818 67.3093 140.318 66.2593L148.268 65.1593C148.268 63.1093 146.668 61.8593 143.218 61.8593C140.018 61.8593 138.218 63.2093 138.218 65.5093H130.718C130.718 59.1093 136.168 55.3593 143.218 55.3593C150.168 55.3593 156.268 58.7093 156.268 67.0093V74.1093H159.918V81.1093H154.368C151.968 81.1093 150.618 79.7593 150.618 77.3593V76.8593L151.868 73.8593H149.868C148.918 78.0593 146.468 81.6093 139.418 81.6093C131.568 81.6093 130.218 76.8093 130.218 74.2093ZM138.218 72.7093C138.218 74.1593 139.618 74.6093 140.968 74.6093C145.368 74.6093 148.268 72.7593 148.268 69.6593L141.818 70.5593C139.418 70.9093 138.218 71.2593 138.218 72.7093ZM163.657 81.1093V59.6593C163.657 56.9093 165.207 55.4093 167.957 55.4593L184.507 55.8593V62.8593L171.657 62.5593V81.1093H163.657ZM185.759 81.1093V74.1093H192.759V51.0593L186.759 51.3593V44.3593L196.409 44.0093C199.209 43.9093 200.759 45.4093 200.759 48.2093V74.1093H207.759V81.1093H185.759ZM210.007 68.4593C210.007 59.6593 216.307 55.3593 224.257 55.3593C232.157 55.3593 238.457 59.6593 238.457 68.4593C238.457 77.3093 232.157 81.6093 224.257 81.6093C216.307 81.6093 210.007 77.3093 210.007 68.4593ZM218.007 68.4593C218.007 72.7093 220.457 74.6093 224.257 74.6093C228.007 74.6093 230.457 72.7093 230.457 68.4593C230.457 64.2593 228.007 62.3593 224.257 62.3593C220.457 62.3593 218.007 64.2593 218.007 68.4593ZM258.991 81.1093V45.8593H284.141V52.8593H266.991V59.9593H281.641V66.9593H266.991V74.1093H284.141V81.1093H258.991ZM300.88 74.6093L310.18 74.1093V81.1093L297.13 81.6093C294.38 81.7093 292.88 80.1093 292.88 77.3593V62.8593H286.88V55.8593H292.88V51.1093L300.88 48.6093V55.8593H309.18V62.8593H300.88V74.6093ZM326.435 74.6093L335.735 74.1093V81.1093L322.685 81.6093C319.935 81.7093 318.435 80.1093 318.435 77.3593V62.8593H312.435V55.8593H318.435V51.1093L326.435 48.6093V55.8593H334.735V62.8593H326.435V74.6093ZM349.839 53.3593C346.889 53.3593 345.139 51.9593 345.139 49.3593C345.139 46.8093 346.889 45.3593 349.839 45.3593C352.789 45.3593 354.639 46.8093 354.639 49.3593C354.639 51.9593 352.789 53.3593 349.839 53.3593ZM339.489 81.1093V74.1093H346.639V62.5593L340.489 62.8593V55.8593L349.989 55.3593C352.789 55.2093 354.339 56.7593 354.339 59.5593V74.1093H361.489V81.1093H339.489ZM389.301 74.1593C389.301 78.4093 386.251 81.6093 377.551 81.6093C368.251 81.6093 364.251 77.8593 364.251 71.9593H372.251C372.251 73.9093 373.601 75.6093 377.801 75.6093C379.951 75.6093 381.301 75.1093 381.301 73.9093C381.301 72.6093 379.901 72.2593 375.851 70.9093C371.151 69.3593 365.401 68.1093 365.401 62.4593C365.401 57.9593 369.451 55.3593 376.401 55.3593C384.951 55.3593 388.451 59.6093 388.451 64.5093H380.451C380.451 62.7093 379.101 61.3593 376.351 61.3593C374.451 61.3593 373.401 61.8093 373.401 62.8093C373.401 64.0093 375.901 64.7593 379.901 66.0593C384.801 67.6593 389.301 68.9093 389.301 74.1593ZM393.064 81.1093V44.3593H401.064V57.4093L399.564 61.9093H401.564C402.864 58.5593 405.264 55.3593 411.514 55.3593C418.814 55.3593 422.464 61.3093 422.464 68.4593C422.464 75.6093 418.814 81.6093 411.514 81.6093C405.264 81.6093 402.864 78.4093 401.564 75.0593H399.564L401.064 79.5593V81.1093H393.064ZM401.064 68.4593C401.064 72.7093 403.464 74.6093 407.764 74.6093C412.064 74.6093 414.464 72.7093 414.464 68.4593C414.464 64.2093 412.064 62.3593 407.764 62.3593C403.464 62.3593 401.064 64.2093 401.064 68.4593ZM425.724 68.1593C425.724 60.1593 431.174 55.3593 439.024 55.3593C446.874 55.3593 452.374 60.0093 452.374 67.6593V70.1593H433.224C433.224 73.0593 435.324 75.1093 439.874 75.1093C442.674 75.1093 444.774 74.1093 445.274 72.2093H453.274C452.774 75.8593 448.624 81.6093 439.874 81.6093C430.174 81.6093 425.724 75.3093 425.724 68.1593ZM433.224 65.6593H444.874C444.874 63.7593 443.474 61.8593 439.024 61.8593C434.574 61.8593 433.224 63.7593 433.224 65.6593ZM457.503 81.1093V59.6593C457.503 56.9093 459.053 55.4093 461.803 55.4593L478.353 55.8593V62.8593L465.503 62.5593V81.1093H457.503ZM511.73 55.8593H513.93V62.8593H512.23C511.48 62.8593 510.58 62.8593 509.88 63.3093C510.18 63.7093 510.58 64.8593 510.58 66.2093C510.58 70.9593 506.13 73.9593 499.18 76.3093C504.93 75.9593 510.28 77.4593 510.28 82.8093C510.28 90.2593 501.53 91.1093 482.78 91.1093V84.1093C499.13 84.1093 502.23 83.8593 502.23 81.1093C502.23 77.4093 493.18 79.0593 485.43 80.3593L484.58 75.8593C490.33 75.2593 495.53 74.6593 500.13 73.5593V71.5593C490.88 74.8593 481.13 73.5093 481.13 65.2093C481.13 58.5593 487.43 55.3593 495.38 55.3593C499.23 55.3593 502.73 56.1093 505.38 58.0593C506.88 56.1093 509.48 55.8593 511.73 55.8593ZM495.88 69.0593C500.68 69.0593 502.58 67.8593 502.58 65.7093C502.58 63.6093 500.68 62.3593 495.88 62.3593C491.08 62.3593 489.13 63.6093 489.13 65.7093C489.13 67.8593 491.08 69.0593 495.88 69.0593ZM516.206 68.1593C516.206 60.1593 521.656 55.3593 529.506 55.3593C537.356 55.3593 542.856 60.0093 542.856 67.6593V70.1593H523.706C523.706 73.0593 525.806 75.1093 530.356 75.1093C533.156 75.1093 535.256 74.1093 535.756 72.2093H543.756C543.256 75.8593 539.106 81.6093 530.356 81.6093C520.656 81.6093 516.206 75.3093 516.206 68.1593ZM523.706 65.6593H535.356C535.356 63.7593 533.956 61.8593 529.506 61.8593C525.056 61.8593 523.706 63.7593 523.706 65.6593ZM547.985 81.1093V59.6593C547.985 56.9093 549.535 55.4093 552.285 55.4593L568.835 55.8593V62.8593L555.985 62.5593V81.1093H547.985Z" fill="black"/>
<path d="M110.528 160.687C115.316 160.687 120.412 162.059 120.412 170.543C120.412 179.055 115.316 180.427 110.528 180.427H104.256V160.687H110.528ZM110.528 178.467C114.028 178.467 118.116 177.851 118.116 170.543C118.116 163.263 114.028 162.647 110.528 162.647H106.552V178.467H110.528ZM125.573 180.707C124.257 180.707 123.249 179.699 123.249 178.355C123.249 177.067 124.257 176.059 125.573 176.059C126.861 176.059 127.897 177.067 127.897 178.355C127.897 179.699 126.861 180.707 125.573 180.707ZM132.153 173.455C132.153 169.423 135.065 166.231 139.517 166.231C143.941 166.231 146.825 169.423 146.825 173.455C146.825 177.515 143.941 180.707 139.517 180.707C135.065 180.707 132.153 177.515 132.153 173.455ZM134.449 173.455C134.449 176.367 136.213 178.747 139.517 178.747C142.793 178.747 144.557 176.367 144.557 173.455C144.557 170.571 142.793 168.191 139.517 168.191C136.213 168.191 134.449 170.571 134.449 173.455ZM152.28 180.707C150.964 180.707 149.956 179.699 149.956 178.355C149.956 177.067 150.964 176.059 152.28 176.059C153.568 176.059 154.604 177.067 154.604 178.355C154.604 179.699 153.568 180.707 152.28 180.707ZM159.42 180.427V160.687H164.656C169.472 160.687 172.244 161.639 172.244 165.531C172.244 168.387 170.34 169.563 168.296 169.703V170.375C171.32 170.431 173.7 171.663 173.7 175.191C173.7 179.167 170.704 180.427 165.916 180.427H159.42ZM161.716 169.171H164.74C167.96 169.171 169.948 168.695 169.948 165.895C169.948 162.843 167.96 162.647 164.74 162.647H161.716V169.171ZM161.716 178.467H166C169.36 178.467 171.404 177.907 171.404 174.799C171.404 171.915 169.36 171.131 166 171.131H161.716V178.467ZM180.546 170.879C179.23 170.879 178.222 169.871 178.222 168.555C178.222 167.267 179.23 166.231 180.546 166.231C181.834 166.231 182.87 167.267 182.87 168.555C182.87 169.871 181.834 170.879 180.546 170.879ZM180.546 180.707C179.23 180.707 178.222 179.699 178.222 178.355C178.222 177.067 179.23 176.059 180.546 176.059C181.834 176.059 182.87 177.067 182.87 178.355C182.87 179.699 181.834 180.707 180.546 180.707ZM196.843 170.207C196.843 163.095 200.595 160.407 205.327 160.407C209.527 160.407 212.383 162.731 212.383 167.043C212.383 173.455 205.943 176.899 197.795 178.187V178.831L199.419 178.467H212.383V180.427H197.123V176.423C199.139 176.143 210.087 174.239 210.087 167.015C210.087 163.963 208.379 162.367 205.383 162.367C201.743 162.367 199.139 164.327 199.139 170.207H196.843ZM224.454 160.407C229.942 160.407 232.826 164.747 232.826 170.543C232.826 176.367 229.942 180.707 224.454 180.707C218.91 180.707 216.026 176.367 216.026 170.543C216.026 164.747 218.91 160.407 224.454 160.407ZM224.454 162.367C220.338 162.367 218.294 165.783 218.294 170.543C218.294 172.391 218.602 174.015 219.19 175.331L228.486 163.991C227.478 162.955 226.162 162.367 224.454 162.367ZM224.454 178.747C228.542 178.747 230.558 175.331 230.558 170.543C230.558 168.695 230.25 167.071 229.662 165.755L220.366 177.095C221.374 178.159 222.718 178.747 224.454 178.747ZM237.296 172.447H250.652V174.323H237.296V172.447ZM254.84 169.451C258.592 167.939 259.88 164.579 259.936 160.687H264.584V180.427H262.288V162.927L262.68 161.331H262.008C261.728 165.699 260.468 169.815 255.568 171.411L254.84 169.451ZM268.796 170.207C268.796 163.095 272.548 160.407 277.28 160.407C281.48 160.407 284.336 162.731 284.336 167.043C284.336 173.455 277.896 176.899 269.748 178.187V178.831L271.372 178.467H284.336V180.427H269.076V176.423C271.092 176.143 282.04 174.239 282.04 167.015C282.04 163.963 280.332 162.367 277.336 162.367C273.696 162.367 271.092 164.327 271.092 170.207H268.796ZM288.787 172.447H302.143V174.323H288.787V172.447ZM322.375 169.927C322.375 176.339 320.051 181.351 313.695 180.707L307.983 180.147V178.187L313.695 178.747C318.455 179.223 319.995 175.583 320.527 171.663L321.199 170.067H320.527C319.967 172.923 317.139 174.883 313.611 174.883C309.187 174.883 306.555 171.915 306.555 167.771C306.555 163.487 309.551 160.407 314.451 160.407C319.183 160.407 322.375 163.571 322.375 169.927ZM320.079 167.491C320.079 164.971 318.063 162.367 314.451 162.367C310.895 162.367 308.851 164.327 308.851 167.771C308.851 170.879 310.671 172.923 313.919 172.923C317.419 172.923 320.079 170.851 320.079 167.491ZM334.681 160.407C340.169 160.407 343.053 164.747 343.053 170.543C343.053 176.367 340.169 180.707 334.681 180.707C329.137 180.707 326.253 176.367 326.253 170.543C326.253 164.747 329.137 160.407 334.681 160.407ZM334.681 162.367C330.565 162.367 328.521 165.783 328.521 170.543C328.521 172.391 328.829 174.015 329.417 175.331L338.713 163.991C337.705 162.955 336.389 162.367 334.681 162.367ZM334.681 178.747C338.769 178.747 340.785 175.331 340.785 170.543C340.785 168.695 340.477 167.071 339.889 165.755L330.593 177.095C331.601 178.159 332.945 178.747 334.681 178.747Z" fill="black"/>
<path d="M269.328 255.528H271.512L275.544 274.624H276.216L280.22 255.528H284.952L288.956 274.624H289.628L293.66 255.528H295.844L291.644 275.268H286.968L282.908 256.172H282.264L278.232 275.268H273.556L269.328 255.528ZM297.05 268.128C297.05 263.648 299.85 261.072 303.798 261.072C307.718 261.072 310.294 263.564 310.294 267.848V268.744H299.29C299.43 271.376 300.69 273.644 304.134 273.644C306.43 273.644 307.97 272.524 308.474 270.396H310.77C310.238 272.552 308.558 275.548 304.134 275.548C299.15 275.548 297.05 272.132 297.05 268.128ZM299.29 267.008H308.054C308.054 264.768 306.57 263.004 303.798 263.004C301.054 263.004 299.29 264.768 299.29 267.008ZM314.518 275.268V254.688H316.814V263.396L316.45 264.992H317.094C317.682 262.808 319.558 261.072 322.75 261.072C326.782 261.072 329.358 264.18 329.358 268.296C329.358 272.44 326.782 275.548 322.75 275.548C319.558 275.548 317.682 273.812 317.094 271.656H316.45L316.814 273.224V275.268H314.518ZM316.814 268.296C316.814 272.02 319.194 273.588 322.05 273.588C324.934 273.588 327.062 272.02 327.062 268.296C327.062 264.6 324.934 263.032 322.05 263.032C319.194 263.032 316.814 264.6 316.814 268.296ZM349.302 255.528C354.09 255.528 359.186 256.9 359.186 265.384C359.186 273.896 354.09 275.268 349.302 275.268H343.03V255.528H349.302ZM349.302 273.308C352.802 273.308 356.89 272.692 356.89 265.384C356.89 258.104 352.802 257.488 349.302 257.488H345.326V273.308H349.302ZM362.195 268.128C362.195 263.648 364.995 261.072 368.943 261.072C372.863 261.072 375.439 263.564 375.439 267.848V268.744H364.435C364.575 271.376 365.835 273.644 369.279 273.644C371.575 273.644 373.115 272.524 373.619 270.396H375.915C375.383 272.552 373.703 275.548 369.279 275.548C364.295 275.548 362.195 272.132 362.195 268.128ZM364.435 267.008H373.199C373.199 264.768 371.715 263.004 368.943 263.004C366.199 263.004 364.435 264.768 364.435 267.008ZM389.39 261.352H391.602L387.066 275.268H382.418L377.826 261.352H380.066L384.406 274.624H385.078L389.39 261.352ZM393.55 268.128C393.55 263.648 396.35 261.072 400.298 261.072C404.218 261.072 406.794 263.564 406.794 267.848V268.744H395.79C395.93 271.376 397.19 273.644 400.634 273.644C402.93 273.644 404.47 272.524 404.974 270.396H407.27C406.738 272.552 405.058 275.548 400.634 275.548C395.65 275.548 393.55 272.132 393.55 268.128ZM395.79 267.008H404.554C404.554 264.768 403.07 263.004 400.298 263.004C397.554 263.004 395.79 264.768 395.79 267.008ZM409.058 275.268V273.308H412.978V256.396L410.094 256.648V254.688L413.342 254.408C414.63 254.296 415.246 255.024 415.246 256.34V273.308H419.138V275.268H409.058ZM421.133 268.296C421.133 264.264 424.045 261.072 428.497 261.072C432.921 261.072 435.805 264.264 435.805 268.296C435.805 272.356 432.921 275.548 428.497 275.548C424.045 275.548 421.133 272.356 421.133 268.296ZM423.429 268.296C423.429 271.208 425.193 273.588 428.497 273.588C431.773 273.588 433.537 271.208 433.537 268.296C433.537 265.412 431.773 263.032 428.497 263.032C425.193 263.032 423.429 265.412 423.429 268.296ZM439.585 261.352H441.881V263.396L441.517 264.992H442.161C442.749 262.808 444.597 261.072 447.789 261.072C451.821 261.072 454.425 264.18 454.425 268.324C454.425 272.44 451.821 275.548 447.789 275.548C444.597 275.548 442.749 273.812 442.161 271.656H441.517L441.881 273.224V280.364H439.585V261.352ZM441.881 268.324C441.881 272.02 444.261 273.588 447.117 273.588C450.001 273.588 452.129 271.964 452.129 268.324C452.129 264.656 450.001 263.032 447.117 263.032C444.261 263.032 441.881 264.6 441.881 268.324ZM457.465 268.128C457.465 263.648 460.265 261.072 464.213 261.072C468.133 261.072 470.709 263.564 470.709 267.848V268.744H459.705C459.845 271.376 461.105 273.644 464.549 273.644C466.845 273.644 468.385 272.524 468.889 270.396H471.185C470.653 272.552 468.973 275.548 464.549 275.548C459.565 275.548 457.465 272.132 457.465 268.128ZM459.705 267.008H468.469C468.469 264.768 466.985 263.004 464.213 263.004C461.469 263.004 459.705 264.768 459.705 267.008ZM474.769 275.268V263.004C474.769 261.688 475.385 261.044 476.701 261.1L484.429 261.352V263.312L477.065 263.06V275.268H474.769ZM519.581 275.744L517.789 276.92L514.737 273.028C512.693 274.904 509.949 275.968 506.617 275.968C501.325 275.968 497.545 273.14 497.545 268.52C497.545 264.46 500.373 262.08 503.537 262.08C505.161 262.08 506.253 262.864 506.757 263.508V262.836L502.081 256.872L502.053 255.528H516.781V257.488H505.161L514.765 269.668C516.081 267.568 516.753 264.768 516.753 261.492H519.021C519.021 265.496 518.013 268.912 516.165 271.432L519.581 275.744ZM506.617 274.008C509.473 274.008 511.741 273.056 513.421 271.376L509.669 266.588C508.073 264.544 506.757 263.816 504.573 263.816C501.773 263.816 499.841 265.524 499.841 268.548C499.841 271.992 502.557 274.008 506.617 274.008ZM532.997 255.528H535.181L539.213 274.624H539.885L543.889 255.528H548.621L552.625 274.624H553.297L557.329 255.528H559.513L555.313 275.268H550.637L546.577 256.172H545.933L541.901 275.268H537.225L532.997 255.528ZM560.719 268.128C560.719 263.648 563.519 261.072 567.467 261.072C571.387 261.072 573.963 263.564 573.963 267.848V268.744H562.959C563.099 271.376 564.359 273.644 567.803 273.644C570.099 273.644 571.639 272.524 572.143 270.396H574.439C573.907 272.552 572.227 275.548 567.803 275.548C562.819 275.548 560.719 272.132 560.719 268.128ZM562.959 267.008H571.723C571.723 264.768 570.239 263.004 567.467 263.004C564.723 263.004 562.959 264.768 562.959 267.008ZM578.188 275.268V254.688H580.484V263.396L580.12 264.992H580.764C581.352 262.808 583.228 261.072 586.42 261.072C590.452 261.072 593.028 264.18 593.028 268.296C593.028 272.44 590.452 275.548 586.42 275.548C583.228 275.548 581.352 273.812 580.764 271.656H580.12L580.484 273.224V275.268H578.188ZM580.484 268.296C580.484 272.02 582.864 273.588 585.72 273.588C588.604 273.588 590.732 272.02 590.732 268.296C590.732 264.6 588.604 263.032 585.72 263.032C582.864 263.032 580.484 264.6 580.484 268.296ZM612.971 255.528C617.759 255.528 622.855 256.9 622.855 265.384C622.855 273.896 617.759 275.268 612.971 275.268H606.699V255.528H612.971ZM612.971 273.308C616.471 273.308 620.559 272.692 620.559 265.384C620.559 258.104 616.471 257.488 612.971 257.488H608.995V273.308H612.971ZM625.864 268.128C625.864 263.648 628.664 261.072 632.612 261.072C636.532 261.072 639.108 263.564 639.108 267.848V268.744H628.104C628.244 271.376 629.504 273.644 632.948 273.644C635.244 273.644 636.784 272.524 637.288 270.396H639.584C639.052 272.552 637.372 275.548 632.948 275.548C627.964 275.548 625.864 272.132 625.864 268.128ZM628.104 267.008H636.868C636.868 264.768 635.384 263.004 632.612 263.004C629.868 263.004 628.104 264.768 628.104 267.008ZM654.172 271.656C654.172 273.756 652.856 275.548 648.684 275.548C644.176 275.548 642.328 273.448 642.328 270.144H644.624C644.624 272.552 646.024 273.672 648.712 273.672C650.868 273.672 651.876 273.168 651.876 271.74C651.876 269.92 650 269.612 647.732 268.912C645.1 268.072 642.972 267.26 642.972 264.74C642.972 262.528 644.848 261.072 648.04 261.072C652.38 261.072 653.696 263.452 653.696 265.748H651.4C651.4 263.872 650.252 262.948 648.04 262.948C646.5 262.948 645.268 263.396 645.268 264.656C645.268 266 646.22 266.42 648.46 267.148C651.204 268.044 654.172 268.66 654.172 271.656ZM661.649 259.14C660.501 259.14 659.633 258.3 659.633 257.18C659.633 256.116 660.501 255.248 661.649 255.248C662.769 255.248 663.665 256.116 663.665 257.18C663.665 258.3 662.769 259.14 661.649 259.14ZM657.001 275.268V273.308H660.921V263.06L658.037 263.312V261.352L661.257 261.072C662.573 260.96 663.077 261.688 663.077 262.752V273.308H666.997V275.268H657.001ZM683.642 261.352H684.874V263.312H683.698C682.914 263.312 682.41 263.48 681.878 263.872C682.466 264.6 682.83 265.608 682.83 266.812C682.83 269.808 680.478 271.684 676.278 273.224C679.526 272.692 682.662 273.14 682.662 276.22C682.662 279.916 678.854 280.392 669.53 280.392V278.432C677.51 278.432 680.366 278.236 680.366 276.052C680.366 272.972 674.234 274.456 670.79 275.492L670.314 273.896C672.554 273.28 674.766 272.636 676.922 271.964V271.32C672.442 272.468 668.522 271.012 668.522 266.7C668.522 262.864 671.658 261.072 675.662 261.072C677.342 261.072 679.078 261.492 680.394 262.416C681.85 261.492 682.382 261.352 683.642 261.352ZM675.69 270.508C678.63 270.508 680.534 269.472 680.534 266.756C680.534 264.068 678.63 263.032 675.69 263.032C672.778 263.032 670.818 264.068 670.818 266.756C670.818 269.472 672.778 270.508 675.69 270.508ZM695.295 263.032C692.355 263.032 690.283 265.356 690.283 269.108V275.268H687.987V261.352H690.283V263.76L689.919 265.356H690.563C691.123 262.836 692.887 261.072 695.911 261.072C699.047 261.072 701.091 262.892 701.091 266.756V275.268H698.823V267.064C698.823 264.152 697.675 263.032 695.295 263.032ZM704.663 268.128C704.663 263.648 707.463 261.072 711.411 261.072C715.331 261.072 717.907 263.564 717.907 267.848V268.744H706.903C707.043 271.376 708.303 273.644 711.747 273.644C714.043 273.644 715.583 272.524 716.087 270.396H718.383C717.851 272.552 716.171 275.548 711.747 275.548C706.763 275.548 704.663 272.132 704.663 268.128ZM706.903 267.008H715.667C715.667 264.768 714.183 263.004 711.411 263.004C708.667 263.004 706.903 264.768 706.903 267.008ZM721.967 275.268V263.004C721.967 261.688 722.583 261.044 723.899 261.1L731.627 261.352V263.312L724.263 263.06V275.268H721.967Z" fill="black"/>
<path d="M88.7461 403.363V383.623H101.682V385.583H91.0421V393.451L100.366 392.891V394.879L91.0421 395.439V403.363H88.7461ZM103.481 396.391C103.481 392.359 106.393 389.167 110.845 389.167C115.269 389.167 118.153 392.359 118.153 396.391C118.153 400.451 115.269 403.643 110.845 403.643C106.393 403.643 103.481 400.451 103.481 396.391ZM105.777 396.391C105.777 399.303 107.541 401.683 110.845 401.683C114.121 401.683 115.885 399.303 115.885 396.391C115.885 393.507 114.121 391.127 110.845 391.127C107.541 391.127 105.777 393.507 105.777 396.391ZM121.77 403.363V391.099C121.77 389.783 122.386 389.139 123.702 389.195L131.43 389.447V391.407L124.066 391.155V403.363H121.77ZM148.214 401.711L153.114 401.403V403.363L147.85 403.643C146.534 403.727 145.946 403.027 145.946 401.739V391.407H142.866V389.447H145.946V385.863L148.214 385.163V389.447H152.554V391.407H148.214V401.711ZM164.669 389.167C167.805 389.167 169.849 390.987 169.849 394.851V403.363H167.581V395.159C167.581 392.247 166.433 391.127 164.053 391.127C161.113 391.127 159.041 393.451 159.041 397.203V403.363H156.745V382.783H159.041V391.855L158.677 393.451H159.321C159.881 390.931 161.645 389.167 164.669 389.167ZM173.421 396.223C173.421 391.743 176.221 389.167 180.169 389.167C184.089 389.167 186.665 391.659 186.665 395.943V396.839H175.661C175.801 399.471 177.061 401.739 180.505 401.739C182.801 401.739 184.341 400.619 184.845 398.491H187.141C186.609 400.647 184.929 403.643 180.505 403.643C175.521 403.643 173.421 400.227 173.421 396.223ZM175.661 395.103H184.425C184.425 392.863 182.941 391.099 180.169 391.099C177.425 391.099 175.661 392.863 175.661 395.103ZM200.798 389.447H203.094V391.491L202.73 393.087H203.374C203.962 390.903 205.81 389.167 209.002 389.167C213.034 389.167 215.638 392.275 215.638 396.419C215.638 400.535 213.034 403.643 209.002 403.643C205.81 403.643 203.962 401.907 203.374 399.751H202.73L203.094 401.319V408.459H200.798V389.447ZM203.094 396.419C203.094 400.115 205.474 401.683 208.33 401.683C211.214 401.683 213.342 400.059 213.342 396.419C213.342 392.751 211.214 391.127 208.33 391.127C205.474 391.127 203.094 392.695 203.094 396.419ZM218.896 399.499C218.896 397.287 220.212 395.775 223.46 395.439L229.004 394.907C228.864 392.359 227.492 391.099 225.084 391.099C223.068 391.099 221.192 391.995 221.192 394.627H218.952C218.952 391.743 221.136 389.167 225.084 389.167C228.976 389.167 231.3 391.743 231.3 395.467V401.403H233.344V403.363H230.88C229.816 403.363 229.228 402.775 229.228 401.739V400.983L229.592 399.527H228.92C228.388 401.655 226.904 403.643 223.544 403.643C219.512 403.643 218.896 400.955 218.896 399.499ZM221.192 399.219C221.192 400.815 222.2 401.683 223.824 401.683C226.988 401.683 229.004 399.499 229.004 396.615L223.852 397.147C222.088 397.315 221.192 397.847 221.192 399.219ZM247.177 399.751C247.177 401.851 245.861 403.643 241.689 403.643C237.181 403.643 235.333 401.543 235.333 398.239H237.629C237.629 400.647 239.029 401.767 241.717 401.767C243.873 401.767 244.881 401.263 244.881 399.835C244.881 398.015 243.005 397.707 240.737 397.007C238.105 396.167 235.977 395.355 235.977 392.835C235.977 390.623 237.853 389.167 241.045 389.167C245.385 389.167 246.701 391.547 246.701 393.843H244.405C244.405 391.967 243.257 391.043 241.045 391.043C239.505 391.043 238.273 391.491 238.273 392.751C238.273 394.095 239.225 394.515 241.465 395.243C244.209 396.139 247.177 396.755 247.177 399.751ZM254.459 401.711L259.359 401.403V403.363L254.095 403.643C252.779 403.727 252.191 403.027 252.191 401.739V391.407H249.111V389.447H252.191V385.863L254.459 385.163V389.447H258.799V391.407H254.459V401.711ZM283.849 389.447H286.341L280.293 403.223V407.115C280.293 408.179 279.677 408.823 278.361 408.767L272.985 408.515V406.555L277.997 406.807V403.223L271.921 389.447H274.441L278.809 400.283V401.347H279.481V400.283L283.849 389.447ZM288.125 396.223C288.125 391.743 290.925 389.167 294.873 389.167C298.793 389.167 301.369 391.659 301.369 395.943V396.839H290.365C290.505 399.471 291.765 401.739 295.209 401.739C297.505 401.739 299.045 400.619 299.549 398.491H301.845C301.313 400.647 299.633 403.643 295.209 403.643C290.225 403.643 288.125 400.227 288.125 396.223ZM290.365 395.103H299.129C299.129 392.863 297.645 391.099 294.873 391.099C292.129 391.099 290.365 392.863 290.365 395.103ZM305.088 399.499C305.088 397.287 306.404 395.775 309.652 395.439L315.196 394.907C315.056 392.359 313.684 391.099 311.276 391.099C309.26 391.099 307.384 391.995 307.384 394.627H305.144C305.144 391.743 307.328 389.167 311.276 389.167C315.168 389.167 317.492 391.743 317.492 395.467V401.403H319.536V403.363H317.072C316.008 403.363 315.42 402.775 315.42 401.739V400.983L315.784 399.527H315.112C314.58 401.655 313.096 403.643 309.736 403.643C305.704 403.643 305.088 400.955 305.088 399.499ZM307.384 399.219C307.384 400.815 308.392 401.683 310.016 401.683C313.18 401.683 315.196 399.499 315.196 396.615L310.044 397.147C308.28 397.315 307.384 397.847 307.384 399.219ZM322.583 403.363V391.099C322.583 389.783 323.199 389.139 324.515 389.195L332.243 389.447V391.407L324.879 391.155V403.363H322.583ZM334.875 398.799L336.919 399.331L334.735 407.451L332.691 406.891L334.875 398.799ZM362.269 385.583H357.873V401.403H362.269V403.363H351.153V401.403H355.577V385.583H351.153V383.623H362.269V385.583ZM384.15 389.167C387.286 389.167 389.33 390.987 389.33 394.851V403.363H387.062V395.159C387.062 392.247 385.914 391.127 383.534 391.127C380.594 391.127 378.522 393.451 378.522 397.203V403.363H376.226V382.783H378.522V391.855L378.158 393.451H378.802C379.362 390.931 381.126 389.167 384.15 389.167ZM392.957 399.499C392.957 397.287 394.273 395.775 397.521 395.439L403.065 394.907C402.925 392.359 401.553 391.099 399.145 391.099C397.129 391.099 395.253 391.995 395.253 394.627H393.013C393.013 391.743 395.197 389.167 399.145 389.167C403.037 389.167 405.361 391.743 405.361 395.467V401.403H407.405V403.363H404.941C403.877 403.363 403.289 402.775 403.289 401.739V400.983L403.653 399.527H402.981C402.449 401.655 400.965 403.643 397.605 403.643C393.573 403.643 392.957 400.955 392.957 399.499ZM395.253 399.219C395.253 400.815 396.261 401.683 397.885 401.683C401.049 401.683 403.065 399.499 403.065 396.615L397.913 397.147C396.149 397.315 395.253 397.847 395.253 399.219ZM419.551 389.447H421.763L417.227 403.363H412.579L407.987 389.447H410.227L414.567 402.719H415.239L419.551 389.447ZM423.711 396.223C423.711 391.743 426.511 389.167 430.459 389.167C434.379 389.167 436.955 391.659 436.955 395.943V396.839H425.951C426.091 399.471 427.351 401.739 430.795 401.739C433.091 401.739 434.631 400.619 435.135 398.491H437.431C436.899 400.647 435.219 403.643 430.795 403.643C425.811 403.643 423.711 400.227 423.711 396.223ZM425.951 395.103H434.715C434.715 392.863 433.231 391.099 430.459 391.099C427.715 391.099 425.951 392.863 425.951 395.103ZM451.088 403.363V382.783H453.384V391.491L453.02 393.087H453.664C454.252 390.903 456.128 389.167 459.32 389.167C463.352 389.167 465.928 392.275 465.928 396.391C465.928 400.535 463.352 403.643 459.32 403.643C456.128 403.643 454.252 401.907 453.664 399.751H453.02L453.384 401.319V403.363H451.088ZM453.384 396.391C453.384 400.115 455.764 401.683 458.62 401.683C461.504 401.683 463.632 400.115 463.632 396.391C463.632 392.695 461.504 391.127 458.62 391.127C455.764 391.127 453.384 392.695 453.384 396.391ZM468.968 396.223C468.968 391.743 471.768 389.167 475.716 389.167C479.636 389.167 482.212 391.659 482.212 395.943V396.839H471.208C471.348 399.471 472.608 401.739 476.052 401.739C478.348 401.739 479.888 400.619 480.392 398.491H482.688C482.156 400.647 480.476 403.643 476.052 403.643C471.068 403.643 468.968 400.227 468.968 396.223ZM471.208 395.103H479.972C479.972 392.863 478.488 391.099 475.716 391.099C472.972 391.099 471.208 392.863 471.208 395.103ZM485.712 396.223C485.712 391.743 488.512 389.167 492.46 389.167C496.38 389.167 498.956 391.659 498.956 395.943V396.839H487.952C488.092 399.471 489.352 401.739 492.796 401.739C495.092 401.739 496.632 400.619 497.136 398.491H499.432C498.9 400.647 497.22 403.643 492.796 403.643C487.812 403.643 485.712 400.227 485.712 396.223ZM487.952 395.103H496.716C496.716 392.863 495.232 391.099 492.46 391.099C489.716 391.099 487.952 392.863 487.952 395.103ZM510.324 391.127C507.384 391.127 505.312 393.451 505.312 397.203V403.363H503.016V389.447H505.312V391.855L504.948 393.451H505.592C506.152 390.931 507.916 389.167 510.94 389.167C514.076 389.167 516.12 390.987 516.12 394.851V403.363H513.852V395.159C513.852 392.247 512.704 391.127 510.324 391.127ZM544.386 403.363H542.09V401.319L542.482 399.751H541.81C541.222 401.907 539.346 403.643 536.182 403.643C532.15 403.643 529.546 400.535 529.546 396.391C529.546 392.275 532.15 389.167 536.182 389.167C539.346 389.167 541.222 390.903 541.81 393.087H542.482L542.09 391.491V382.783H544.386V403.363ZM542.09 396.391C542.09 392.695 539.738 391.127 536.854 391.127C533.97 391.127 531.842 392.695 531.842 396.391C531.842 400.115 533.97 401.683 536.854 401.683C539.738 401.683 542.09 400.115 542.09 396.391ZM552.688 387.235C551.54 387.235 550.672 386.395 550.672 385.275C550.672 384.211 551.54 383.343 552.688 383.343C553.808 383.343 554.704 384.211 554.704 385.275C554.704 386.395 553.808 387.235 552.688 387.235ZM548.04 403.363V401.403H551.96V391.155L549.076 391.407V389.447L552.296 389.167C553.612 389.055 554.116 389.783 554.116 390.847V401.403H558.036V403.363H548.04ZM560.594 403.363V401.403H564.514V384.491L561.63 384.743V382.783L564.878 382.503C566.166 382.391 566.782 383.119 566.782 384.435V401.403H570.674V403.363H560.594ZM578.11 387.235C576.962 387.235 576.094 386.395 576.094 385.275C576.094 384.211 576.962 383.343 578.11 383.343C579.23 383.343 580.126 384.211 580.126 385.275C580.126 386.395 579.23 387.235 578.11 387.235ZM573.462 403.363V401.403H577.382V391.155L574.498 391.407V389.447L577.718 389.167C579.034 389.055 579.538 389.783 579.538 390.847V401.403H583.458V403.363H573.462ZM600.104 389.447H601.336V391.407H600.16C599.376 391.407 598.872 391.575 598.34 391.967C598.928 392.695 599.292 393.703 599.292 394.907C599.292 397.903 596.94 399.779 592.74 401.319C595.988 400.787 599.124 401.235 599.124 404.315C599.124 408.011 595.316 408.487 585.992 408.487V406.527C593.972 406.527 596.828 406.331 596.828 404.147C596.828 401.067 590.696 402.551 587.252 403.587L586.776 401.991C589.016 401.375 591.228 400.731 593.384 400.059V399.415C588.904 400.563 584.984 399.107 584.984 394.795C584.984 390.959 588.12 389.167 592.124 389.167C593.804 389.167 595.54 389.587 596.856 390.511C598.312 389.587 598.844 389.447 600.104 389.447ZM592.152 398.603C595.092 398.603 596.996 397.567 596.996 394.851C596.996 392.163 595.092 391.127 592.152 391.127C589.24 391.127 587.28 392.163 587.28 394.851C587.28 397.567 589.24 398.603 592.152 398.603ZM603.341 396.223C603.341 391.743 606.141 389.167 610.089 389.167C614.009 389.167 616.585 391.659 616.585 395.943V396.839H605.581C605.721 399.471 606.981 401.739 610.425 401.739C612.721 401.739 614.261 400.619 614.765 398.491H617.061C616.529 400.647 614.849 403.643 610.425 403.643C605.441 403.643 603.341 400.227 603.341 396.223ZM605.581 395.103H614.345C614.345 392.863 612.861 391.099 610.089 391.099C607.345 391.099 605.581 392.863 605.581 395.103ZM627.953 391.127C625.013 391.127 622.941 393.451 622.941 397.203V403.363H620.645V389.447H622.941V391.855L622.577 393.451H623.221C623.781 390.931 625.545 389.167 628.569 389.167C631.705 389.167 633.749 390.987 633.749 394.851V403.363H631.481V395.159C631.481 392.247 630.333 391.127 627.953 391.127ZM641.693 401.711L646.593 401.403V403.363L641.329 403.643C640.013 403.727 639.425 403.027 639.425 401.739V391.407H636.345V389.447H639.425V385.863L641.693 385.163V389.447H646.033V391.407H641.693V401.711ZM649.438 403.363V401.403H653.358V384.491L650.474 384.743V382.783L653.722 382.503C655.01 382.391 655.626 383.119 655.626 384.435V401.403H659.518V403.363H649.438ZM672.423 389.447H674.915L668.867 403.223V407.115C668.867 408.179 668.251 408.823 666.935 408.767L661.559 408.515V406.555L666.571 406.807V403.223L660.495 389.447H663.015L667.383 400.283V401.347H668.055V400.283L672.423 389.447ZM699.019 399.751C699.019 401.851 697.703 403.643 693.531 403.643C689.023 403.643 687.175 401.543 687.175 398.239H689.471C689.471 400.647 690.871 401.767 693.559 401.767C695.715 401.767 696.723 401.263 696.723 399.835C696.723 398.015 694.847 397.707 692.579 397.007C689.947 396.167 687.819 395.355 687.819 392.835C687.819 390.623 689.695 389.167 692.887 389.167C697.227 389.167 698.543 391.547 698.543 393.843H696.247C696.247 391.967 695.099 391.043 692.887 391.043C691.347 391.043 690.115 391.491 690.115 392.751C690.115 394.095 691.067 394.515 693.307 395.243C696.051 396.139 699.019 396.755 699.019 399.751ZM701.793 396.223C701.793 391.743 704.593 389.167 708.541 389.167C712.461 389.167 715.037 391.659 715.037 395.943V396.839H704.033C704.173 399.471 705.433 401.739 708.877 401.739C711.173 401.739 712.713 400.619 713.217 398.491H715.513C714.981 400.647 713.301 403.643 708.877 403.643C703.893 403.643 701.793 400.227 701.793 396.223ZM704.033 395.103H712.797C712.797 392.863 711.313 391.099 708.541 391.099C705.797 391.099 704.033 392.863 704.033 395.103ZM717.3 403.363V401.403H721.22V384.491L718.336 384.743V382.783L721.584 382.503C722.872 382.391 723.488 383.119 723.488 384.435V401.403H727.38V403.363H717.3ZM737.615 384.743C735.851 384.743 735.291 385.555 735.291 387.375V389.447H739.351V391.407H735.291V401.403H739.351V403.363H729.943V401.403H733.023V391.407H729.943V389.447H733.023V387.319C733.023 384.547 734.395 382.783 737.727 382.783H740.135V384.743H737.615ZM743.514 395.383H756.87V397.259H743.514V395.383ZM761.086 396.223C761.086 391.743 763.886 389.167 767.834 389.167C771.754 389.167 774.33 391.659 774.33 395.943V396.839H763.326C763.466 399.471 764.726 401.739 768.17 401.739C770.466 401.739 772.006 400.619 772.51 398.491H774.806C774.274 400.647 772.594 403.643 768.17 403.643C763.186 403.643 761.086 400.227 761.086 396.223ZM763.326 395.103H772.09C772.09 392.863 770.606 391.099 767.834 391.099C765.09 391.099 763.326 392.863 763.326 395.103ZM792.67 403.363H790.374V401.319L790.766 399.751H790.094C789.506 401.907 787.63 403.643 784.466 403.643C780.434 403.643 777.83 400.535 777.83 396.391C777.83 392.275 780.434 389.167 784.466 389.167C787.63 389.167 789.506 390.903 790.094 393.087H790.766L790.374 391.491V382.783H792.67V403.363ZM790.374 396.391C790.374 392.695 788.022 391.127 785.138 391.127C782.254 391.127 780.126 392.695 780.126 396.391C780.126 400.115 782.254 401.683 785.138 401.683C788.022 401.683 790.374 400.115 790.374 396.391ZM802.62 401.683C805.56 401.683 807.632 399.359 807.632 395.635V389.447H809.9V403.363H807.632V400.955L807.996 399.359H807.352C806.792 401.879 805.028 403.643 802.004 403.643C798.84 403.643 796.796 401.823 796.796 397.959V389.447H799.092V397.651C799.092 400.563 800.212 401.683 802.62 401.683ZM813.452 396.391C813.452 392.387 816.056 389.167 820.564 389.167C823.252 389.167 826.696 390.679 827.06 394.711H824.736C824.344 392.051 822.58 391.127 820.564 391.127C817.26 391.127 815.748 393.535 815.748 396.391C815.748 399.275 817.26 401.683 820.564 401.683C822.58 401.683 824.344 400.759 824.736 398.099H827.06C826.696 402.131 823.252 403.643 820.564 403.643C816.056 403.643 813.452 400.423 813.452 396.391ZM830.305 399.499C830.305 397.287 831.621 395.775 834.869 395.439L840.413 394.907C840.273 392.359 838.901 391.099 836.493 391.099C834.477 391.099 832.601 391.995 832.601 394.627H830.361C830.361 391.743 832.545 389.167 836.493 389.167C840.385 389.167 842.709 391.743 842.709 395.467V401.403H844.753V403.363H842.289C841.225 403.363 840.637 402.775 840.637 401.739V400.983L841.001 399.527H840.329C839.797 401.655 838.313 403.643 834.953 403.643C830.921 403.643 830.305 400.955 830.305 399.499ZM832.601 399.219C832.601 400.815 833.609 401.683 835.233 401.683C838.397 401.683 840.413 399.499 840.413 396.615L835.261 397.147C833.497 397.315 832.601 397.847 832.601 399.219ZM850.901 401.711L855.801 401.403V403.363L850.537 403.643C849.221 403.727 848.633 403.027 848.633 401.739V391.407H845.553V389.447H848.633V385.863L850.901 385.163V389.447H855.241V391.407H850.901V401.711ZM863.301 387.235C862.153 387.235 861.285 386.395 861.285 385.275C861.285 384.211 862.153 383.343 863.301 383.343C864.421 383.343 865.317 384.211 865.317 385.275C865.317 386.395 864.421 387.235 863.301 387.235ZM858.653 403.363V401.403H862.573V391.155L859.689 391.407V389.447L862.909 389.167C864.225 389.055 864.729 389.783 864.729 390.847V401.403H868.649V403.363H858.653ZM879.273 391.127C876.333 391.127 874.261 393.451 874.261 397.203V403.363H871.965V389.447H874.261V391.855L873.897 393.451H874.541C875.101 390.931 876.865 389.167 879.889 389.167C883.025 389.167 885.069 390.987 885.069 394.851V403.363H882.801V395.159C882.801 392.247 881.653 391.127 879.273 391.127ZM903.488 389.447H904.72V391.407H903.544C902.76 391.407 902.256 391.575 901.724 391.967C902.312 392.695 902.676 393.703 902.676 394.907C902.676 397.903 900.324 399.779 896.124 401.319C899.372 400.787 902.508 401.235 902.508 404.315C902.508 408.011 898.7 408.487 889.376 408.487V406.527C897.356 406.527 900.212 406.331 900.212 404.147C900.212 401.067 894.08 402.551 890.636 403.587L890.16 401.991C892.4 401.375 894.612 400.731 896.768 400.059V399.415C892.288 400.563 888.368 399.107 888.368 394.795C888.368 390.959 891.504 389.167 895.508 389.167C897.188 389.167 898.924 389.587 900.24 390.511C901.696 389.587 902.228 389.447 903.488 389.447ZM895.536 398.603C898.476 398.603 900.38 397.567 900.38 394.851C900.38 392.163 898.476 391.127 895.536 391.127C892.624 391.127 890.664 392.163 890.664 394.851C890.664 397.567 892.624 398.603 895.536 398.603ZM323.205 428.711L328.105 428.403V430.363L322.841 430.643C321.525 430.727 320.937 430.027 320.937 428.739V418.407H317.857V416.447H320.937V412.863L323.205 412.163V416.447H327.545V418.407H323.205V428.711ZM330.383 423.391C330.383 419.359 333.295 416.167 337.747 416.167C342.171 416.167 345.055 419.359 345.055 423.391C345.055 427.451 342.171 430.643 337.747 430.643C333.295 430.643 330.383 427.451 330.383 423.391ZM332.679 423.391C332.679 426.303 334.443 428.683 337.747 428.683C341.023 428.683 342.787 426.303 342.787 423.391C342.787 420.507 341.023 418.127 337.747 418.127C334.443 418.127 332.679 420.507 332.679 423.391ZM358.744 430.363V409.783H361.04V418.491L360.676 420.087H361.32C361.908 417.903 363.784 416.167 366.976 416.167C371.008 416.167 373.584 419.275 373.584 423.391C373.584 427.535 371.008 430.643 366.976 430.643C363.784 430.643 361.908 428.907 361.32 426.751H360.676L361.04 428.319V430.363H358.744ZM361.04 423.391C361.04 427.115 363.42 428.683 366.276 428.683C369.16 428.683 371.288 427.115 371.288 423.391C371.288 419.695 369.16 418.127 366.276 418.127C363.42 418.127 361.04 419.695 361.04 423.391ZM376.623 423.223C376.623 418.743 379.423 416.167 383.371 416.167C387.291 416.167 389.867 418.659 389.867 422.943V423.839H378.863C379.003 426.471 380.263 428.739 383.707 428.739C386.003 428.739 387.543 427.619 388.047 425.491H390.343C389.811 427.647 388.131 430.643 383.707 430.643C378.723 430.643 376.623 427.227 376.623 423.223ZM378.863 422.103H387.627C387.627 419.863 386.143 418.099 383.371 418.099C380.627 418.099 378.863 419.863 378.863 422.103ZM393.368 423.391C393.368 419.387 395.972 416.167 400.48 416.167C403.168 416.167 406.612 417.679 406.976 421.711H404.652C404.26 419.051 402.496 418.127 400.48 418.127C397.176 418.127 395.664 420.535 395.664 423.391C395.664 426.275 397.176 428.683 400.48 428.683C402.496 428.683 404.26 427.759 404.652 425.099H406.976C406.612 429.131 403.168 430.643 400.48 430.643C395.972 430.643 393.368 427.423 393.368 423.391ZM410.002 423.391C410.002 419.359 412.914 416.167 417.366 416.167C421.79 416.167 424.674 419.359 424.674 423.391C424.674 427.451 421.79 430.643 417.366 430.643C412.914 430.643 410.002 427.451 410.002 423.391ZM412.298 423.391C412.298 426.303 414.062 428.683 417.366 428.683C420.642 428.683 422.406 426.303 422.406 423.391C422.406 420.507 420.642 418.127 417.366 418.127C414.062 418.127 412.298 420.507 412.298 423.391ZM445.427 416.167C448.339 416.167 449.739 418.491 449.739 421.599V430.363H447.443V422.131C447.443 419.443 446.855 418.127 444.587 418.127C441.815 418.127 440.163 420.591 440.163 424.231V430.363H437.867V422.131C437.867 419.443 437.279 418.127 435.011 418.127C432.239 418.127 430.587 420.591 430.587 424.231V430.363H428.291V416.447H430.587V418.827L430.223 420.395H430.867C431.427 417.875 432.883 416.167 435.851 416.167C438.371 416.167 439.715 417.903 440.023 420.395H440.443C441.003 417.875 442.459 416.167 445.427 416.167ZM453.28 423.223C453.28 418.743 456.08 416.167 460.028 416.167C463.948 416.167 466.524 418.659 466.524 422.943V423.839H455.52C455.66 426.471 456.92 428.739 460.364 428.739C462.66 428.739 464.2 427.619 464.704 425.491H467C466.468 427.647 464.788 430.643 460.364 430.643C455.38 430.643 453.28 427.227 453.28 423.223ZM455.52 422.103H464.284C464.284 419.863 462.8 418.099 460.028 418.099C457.284 418.099 455.52 419.863 455.52 422.103ZM480.096 426.499C480.096 424.287 481.412 422.775 484.66 422.439L490.204 421.907C490.064 419.359 488.692 418.099 486.284 418.099C484.268 418.099 482.392 418.995 482.392 421.627H480.152C480.152 418.743 482.336 416.167 486.284 416.167C490.176 416.167 492.5 418.743 492.5 422.467V428.403H494.544V430.363H492.08C491.016 430.363 490.428 429.775 490.428 428.739V427.983L490.792 426.527H490.12C489.588 428.655 488.104 430.643 484.744 430.643C480.712 430.643 480.096 427.955 480.096 426.499ZM482.392 426.219C482.392 427.815 483.4 428.683 485.024 428.683C488.188 428.683 490.204 426.499 490.204 423.615L485.052 424.147C483.288 424.315 482.392 424.847 482.392 426.219ZM521.644 430.363H519.348V428.319L519.74 426.751H519.068C518.48 428.907 516.604 430.643 513.44 430.643C509.408 430.643 506.804 427.535 506.804 423.391C506.804 419.275 509.408 416.167 513.44 416.167C516.604 416.167 518.48 417.903 519.068 420.087H519.74L519.348 418.491V409.783H521.644V430.363ZM519.348 423.391C519.348 419.695 516.996 418.127 514.112 418.127C511.228 418.127 509.1 419.695 509.1 423.391C509.1 427.115 511.228 428.683 514.112 428.683C516.996 428.683 519.348 427.115 519.348 423.391ZM525.435 423.223C525.435 418.743 528.235 416.167 532.183 416.167C536.103 416.167 538.679 418.659 538.679 422.943V423.839H527.675C527.815 426.471 529.075 428.739 532.519 428.739C534.815 428.739 536.355 427.619 536.859 425.491H539.155C538.623 427.647 536.943 430.643 532.519 430.643C527.535 430.643 525.435 427.227 525.435 423.223ZM527.675 422.103H536.439C536.439 419.863 534.955 418.099 532.183 418.099C529.439 418.099 527.675 419.863 527.675 422.103ZM542.903 416.447H545.199V418.491L544.835 420.087H545.479C546.067 417.903 547.915 416.167 551.107 416.167C555.139 416.167 557.743 419.275 557.743 423.419C557.743 427.535 555.139 430.643 551.107 430.643C547.915 430.643 546.067 428.907 545.479 426.751H544.835L545.199 428.319V435.459H542.903V416.447ZM545.199 423.419C545.199 427.115 547.579 428.683 550.435 428.683C553.319 428.683 555.447 427.059 555.447 423.419C555.447 419.751 553.319 418.127 550.435 418.127C547.579 418.127 545.199 419.695 545.199 423.419ZM560.782 423.223C560.782 418.743 563.582 416.167 567.53 416.167C571.45 416.167 574.026 418.659 574.026 422.943V423.839H563.022C563.162 426.471 564.422 428.739 567.866 428.739C570.162 428.739 571.702 427.619 572.206 425.491H574.502C573.97 427.647 572.29 430.643 567.866 430.643C562.882 430.643 560.782 427.227 560.782 423.223ZM563.022 422.103H571.786C571.786 419.863 570.302 418.099 567.53 418.099C564.786 418.099 563.022 419.863 563.022 422.103ZM585.395 418.127C582.455 418.127 580.383 420.451 580.383 424.203V430.363H578.087V416.447H580.383V418.855L580.019 420.451H580.663C581.223 417.931 582.987 416.167 586.011 416.167C589.147 416.167 591.191 417.987 591.191 421.851V430.363H588.923V422.159C588.923 419.247 587.775 418.127 585.395 418.127ZM609.603 430.363H607.307V428.319L607.699 426.751H607.027C606.439 428.907 604.563 430.643 601.399 430.643C597.367 430.643 594.763 427.535 594.763 423.391C594.763 419.275 597.367 416.167 601.399 416.167C604.563 416.167 606.439 417.903 607.027 420.087H607.699L607.307 418.491V409.783H609.603V430.363ZM607.307 423.391C607.307 419.695 604.955 418.127 602.071 418.127C599.187 418.127 597.059 419.695 597.059 423.391C597.059 427.115 599.187 428.683 602.071 428.683C604.955 428.683 607.307 427.115 607.307 423.391ZM613.449 426.499C613.449 424.287 614.765 422.775 618.013 422.439L623.557 421.907C623.417 419.359 622.045 418.099 619.637 418.099C617.621 418.099 615.745 418.995 615.745 421.627H613.505C613.505 418.743 615.689 416.167 619.637 416.167C623.529 416.167 625.853 418.743 625.853 422.467V428.403H627.897V430.363H625.433C624.369 430.363 623.781 429.775 623.781 428.739V427.983L624.145 426.527H623.473C622.941 428.655 621.457 430.643 618.097 430.643C614.065 430.643 613.449 427.955 613.449 426.499ZM615.745 426.219C615.745 427.815 616.753 428.683 618.377 428.683C621.541 428.683 623.557 426.499 623.557 423.615L618.405 424.147C616.641 424.315 615.745 424.847 615.745 426.219ZM630.944 430.363V409.783H633.24V418.491L632.876 420.087H633.52C634.108 417.903 635.984 416.167 639.176 416.167C643.208 416.167 645.784 419.275 645.784 423.391C645.784 427.535 643.208 430.643 639.176 430.643C635.984 430.643 634.108 428.907 633.52 426.751H632.876L633.24 428.319V430.363H630.944ZM633.24 423.391C633.24 427.115 635.62 428.683 638.476 428.683C641.36 428.683 643.488 427.115 643.488 423.391C643.488 419.695 641.36 418.127 638.476 418.127C635.62 418.127 633.24 419.695 633.24 423.391ZM647.587 430.363V428.403H651.507V411.491L648.623 411.743V409.783L651.871 409.503C653.159 409.391 653.775 410.119 653.775 411.435V428.403H657.667V430.363H647.587ZM659.662 423.223C659.662 418.743 662.462 416.167 666.41 416.167C670.33 416.167 672.906 418.659 672.906 422.943V423.839H661.902C662.042 426.471 663.302 428.739 666.746 428.739C669.042 428.739 670.582 427.619 671.086 425.491H673.382C672.85 427.647 671.17 430.643 666.746 430.643C661.762 430.643 659.662 427.227 659.662 423.223ZM661.902 422.103H670.666C670.666 419.863 669.182 418.099 666.41 418.099C663.666 418.099 661.902 419.863 661.902 422.103ZM257.429 443.447H259.613L262.973 456.719H263.645L266.445 443.447H271.177L274.005 456.719H274.649L278.037 443.447H280.193L276.665 457.363H271.989L269.161 444.119H268.489L265.661 457.363H260.957L257.429 443.447ZM282.15 450.223C282.15 445.743 284.95 443.167 288.898 443.167C292.818 443.167 295.394 445.659 295.394 449.943V450.839H284.39C284.53 453.471 285.79 455.739 289.234 455.739C291.53 455.739 293.07 454.619 293.574 452.491H295.87C295.338 454.647 293.658 457.643 289.234 457.643C284.25 457.643 282.15 454.227 282.15 450.223ZM284.39 449.103H293.154C293.154 446.863 291.67 445.099 288.898 445.099C286.154 445.099 284.39 446.863 284.39 449.103ZM299.618 457.363V436.783H301.914V445.491L301.55 447.087H302.194C302.782 444.903 304.658 443.167 307.85 443.167C311.882 443.167 314.458 446.275 314.458 450.391C314.458 454.535 311.882 457.643 307.85 457.643C304.658 457.643 302.782 455.907 302.194 453.751H301.55L301.914 455.319V457.363H299.618ZM301.914 450.391C301.914 454.115 304.294 455.683 307.15 455.683C310.034 455.683 312.162 454.115 312.162 450.391C312.162 446.695 310.034 445.127 307.15 445.127C304.294 445.127 301.914 446.695 301.914 450.391ZM342.41 457.363H340.114V455.319L340.506 453.751H339.834C339.246 455.907 337.37 457.643 334.206 457.643C330.174 457.643 327.57 454.535 327.57 450.391C327.57 446.275 330.174 443.167 334.206 443.167C337.37 443.167 339.246 444.903 339.834 447.087H340.506L340.114 445.491V436.783H342.41V457.363ZM340.114 450.391C340.114 446.695 337.762 445.127 334.878 445.127C331.994 445.127 329.866 446.695 329.866 450.391C329.866 454.115 331.994 455.683 334.878 455.683C337.762 455.683 340.114 454.115 340.114 450.391ZM346.201 450.223C346.201 445.743 349.001 443.167 352.949 443.167C356.869 443.167 359.445 445.659 359.445 449.943V450.839H348.441C348.581 453.471 349.841 455.739 353.285 455.739C355.581 455.739 357.121 454.619 357.625 452.491H359.921C359.389 454.647 357.709 457.643 353.285 457.643C348.301 457.643 346.201 454.227 346.201 450.223ZM348.441 449.103H357.205C357.205 446.863 355.721 445.099 352.949 445.099C350.205 445.099 348.441 446.863 348.441 449.103ZM373.396 443.447H375.608L371.072 457.363H366.424L361.832 443.447H364.072L368.412 456.719H369.084L373.396 443.447ZM377.557 450.223C377.557 445.743 380.357 443.167 384.305 443.167C388.225 443.167 390.801 445.659 390.801 449.943V450.839H379.797C379.937 453.471 381.197 455.739 384.641 455.739C386.937 455.739 388.477 454.619 388.981 452.491H391.277C390.745 454.647 389.065 457.643 384.641 457.643C379.657 457.643 377.557 454.227 377.557 450.223ZM379.797 449.103H388.561C388.561 446.863 387.077 445.099 384.305 445.099C381.561 445.099 379.797 446.863 379.797 449.103ZM393.064 457.363V455.403H396.984V438.491L394.1 438.743V436.783L397.348 436.503C398.636 436.391 399.252 437.119 399.252 438.435V455.403H403.144V457.363H393.064ZM405.139 450.391C405.139 446.359 408.051 443.167 412.503 443.167C416.927 443.167 419.811 446.359 419.811 450.391C419.811 454.451 416.927 457.643 412.503 457.643C408.051 457.643 405.139 454.451 405.139 450.391ZM407.435 450.391C407.435 453.303 409.199 455.683 412.503 455.683C415.779 455.683 417.543 453.303 417.543 450.391C417.543 447.507 415.779 445.127 412.503 445.127C409.199 445.127 407.435 447.507 407.435 450.391ZM423.592 443.447H425.888V445.491L425.524 447.087H426.168C426.756 444.903 428.604 443.167 431.796 443.167C435.828 443.167 438.432 446.275 438.432 450.419C438.432 454.535 435.828 457.643 431.796 457.643C428.604 457.643 426.756 455.907 426.168 453.751H425.524L425.888 455.319V462.459H423.592V443.447ZM425.888 450.419C425.888 454.115 428.268 455.683 431.124 455.683C434.008 455.683 436.136 454.059 436.136 450.419C436.136 446.751 434.008 445.127 431.124 445.127C428.268 445.127 425.888 446.695 425.888 450.419ZM441.471 450.223C441.471 445.743 444.271 443.167 448.219 443.167C452.139 443.167 454.715 445.659 454.715 449.943V450.839H443.711C443.851 453.471 445.111 455.739 448.555 455.739C450.851 455.739 452.391 454.619 452.895 452.491H455.191C454.659 454.647 452.979 457.643 448.555 457.643C443.571 457.643 441.471 454.227 441.471 450.223ZM443.711 449.103H452.475C452.475 446.863 450.991 445.099 448.219 445.099C445.475 445.099 443.711 446.863 443.711 449.103ZM458.775 457.363V445.099C458.775 443.783 459.391 443.139 460.707 443.195L468.435 443.447V445.407L461.071 445.155V457.363H458.775ZM480.712 453.499C480.712 451.287 482.028 449.775 485.276 449.439L490.82 448.907C490.68 446.359 489.308 445.099 486.9 445.099C484.884 445.099 483.008 445.995 483.008 448.627H480.768C480.768 445.743 482.952 443.167 486.9 443.167C490.792 443.167 493.116 445.743 493.116 449.467V455.403H495.16V457.363H492.696C491.632 457.363 491.044 456.775 491.044 455.739V454.983L491.408 453.527H490.736C490.204 455.655 488.72 457.643 485.36 457.643C481.328 457.643 480.712 454.955 480.712 453.499ZM483.008 453.219C483.008 454.815 484.016 455.683 485.64 455.683C488.804 455.683 490.82 453.499 490.82 450.615L485.668 451.147C483.904 451.315 483.008 451.847 483.008 453.219ZM505.515 445.127C502.575 445.127 500.503 447.451 500.503 451.203V457.363H498.207V443.447H500.503V445.855L500.139 447.451H500.783C501.343 444.931 503.107 443.167 506.131 443.167C509.267 443.167 511.311 444.987 511.311 448.851V457.363H509.043V449.159C509.043 446.247 507.895 445.127 505.515 445.127ZM529.724 457.363H527.428V455.319L527.82 453.751H527.148C526.56 455.907 524.684 457.643 521.52 457.643C517.488 457.643 514.884 454.535 514.884 450.391C514.884 446.275 517.488 443.167 521.52 443.167C524.684 443.167 526.56 444.903 527.148 447.087H527.82L527.428 445.491V436.783H529.724V457.363ZM527.428 450.391C527.428 446.695 525.076 445.127 522.192 445.127C519.308 445.127 517.18 446.695 517.18 450.391C517.18 454.115 519.308 455.683 522.192 455.683C525.076 455.683 527.428 454.115 527.428 450.391ZM542.583 443.447H544.767L548.127 456.719H548.799L551.599 443.447H556.331L559.159 456.719H559.803L563.191 443.447H565.347L561.819 457.363H557.143L554.315 444.119H553.643L550.815 457.363H546.111L542.583 443.447ZM567.304 450.223C567.304 445.743 570.104 443.167 574.052 443.167C577.972 443.167 580.548 445.659 580.548 449.943V450.839H569.544C569.684 453.471 570.944 455.739 574.388 455.739C576.684 455.739 578.224 454.619 578.728 452.491H581.024C580.492 454.647 578.812 457.643 574.388 457.643C569.404 457.643 567.304 454.227 567.304 450.223ZM569.544 449.103H578.308C578.308 446.863 576.824 445.099 574.052 445.099C571.308 445.099 569.544 446.863 569.544 449.103ZM584.772 457.363V436.783H587.068V445.491L586.704 447.087H587.348C587.936 444.903 589.812 443.167 593.004 443.167C597.036 443.167 599.612 446.275 599.612 450.391C599.612 454.535 597.036 457.643 593.004 457.643C589.812 457.643 587.936 455.907 587.348 453.751H586.704L587.068 455.319V457.363H584.772ZM587.068 450.391C587.068 454.115 589.448 455.683 592.304 455.683C595.188 455.683 597.316 454.115 597.316 450.391C597.316 446.695 595.188 445.127 592.304 445.127C589.448 445.127 587.068 446.695 587.068 450.391ZM627.564 457.363H625.268V455.319L625.66 453.751H624.988C624.4 455.907 622.524 457.643 619.36 457.643C615.328 457.643 612.724 454.535 612.724 450.391C612.724 446.275 615.328 443.167 619.36 443.167C622.524 443.167 624.4 444.903 624.988 447.087H625.66L625.268 445.491V436.783H627.564V457.363ZM625.268 450.391C625.268 446.695 622.916 445.127 620.032 445.127C617.148 445.127 615.02 446.695 615.02 450.391C615.02 454.115 617.148 455.683 620.032 455.683C622.916 455.683 625.268 454.115 625.268 450.391ZM631.355 450.223C631.355 445.743 634.155 443.167 638.103 443.167C642.023 443.167 644.599 445.659 644.599 449.943V450.839H633.595C633.735 453.471 634.995 455.739 638.439 455.739C640.735 455.739 642.275 454.619 642.779 452.491H645.075C644.543 454.647 642.863 457.643 638.439 457.643C633.455 457.643 631.355 454.227 631.355 450.223ZM633.595 449.103H642.359C642.359 446.863 640.875 445.099 638.103 445.099C635.359 445.099 633.595 446.863 633.595 449.103ZM659.663 453.751C659.663 455.851 658.347 457.643 654.175 457.643C649.667 457.643 647.819 455.543 647.819 452.239H650.115C650.115 454.647 651.515 455.767 654.203 455.767C656.359 455.767 657.367 455.263 657.367 453.835C657.367 452.015 655.491 451.707 653.223 451.007C650.591 450.167 648.463 449.355 648.463 446.835C648.463 444.623 650.339 443.167 653.531 443.167C657.871 443.167 659.187 445.547 659.187 447.843H656.891C656.891 445.967 655.743 445.043 653.531 445.043C651.991 445.043 650.759 445.491 650.759 446.751C650.759 448.095 651.711 448.515 653.951 449.243C656.695 450.139 659.663 450.755 659.663 453.751ZM667.14 441.235C665.992 441.235 665.124 440.395 665.124 439.275C665.124 438.211 665.992 437.343 667.14 437.343C668.26 437.343 669.156 438.211 669.156 439.275C669.156 440.395 668.26 441.235 667.14 441.235ZM662.492 457.363V455.403H666.412V445.155L663.528 445.407V443.447L666.748 443.167C668.064 443.055 668.568 443.783 668.568 444.847V455.403H672.488V457.363H662.492ZM689.133 443.447H690.365V445.407H689.189C688.405 445.407 687.901 445.575 687.369 445.967C687.957 446.695 688.321 447.703 688.321 448.907C688.321 451.903 685.969 453.779 681.769 455.319C685.017 454.787 688.153 455.235 688.153 458.315C688.153 462.011 684.345 462.487 675.021 462.487V460.527C683.001 460.527 685.857 460.331 685.857 458.147C685.857 455.067 679.725 456.551 676.281 457.587L675.805 455.991C678.045 455.375 680.257 454.731 682.413 454.059V453.415C677.933 454.563 674.013 453.107 674.013 448.795C674.013 444.959 677.149 443.167 681.153 443.167C682.833 443.167 684.569 443.587 685.885 444.511C687.341 443.587 687.873 443.447 689.133 443.447ZM681.181 452.603C684.121 452.603 686.025 451.567 686.025 448.851C686.025 446.163 684.121 445.127 681.181 445.127C678.269 445.127 676.309 446.163 676.309 448.851C676.309 451.567 678.269 452.603 681.181 452.603ZM700.786 445.127C697.846 445.127 695.774 447.451 695.774 451.203V457.363H693.478V443.447H695.774V445.855L695.41 447.451H696.054C696.614 444.931 698.378 443.167 701.402 443.167C704.538 443.167 706.582 444.987 706.582 448.851V457.363H704.314V449.159C704.314 446.247 703.166 445.127 700.786 445.127ZM710.154 450.223C710.154 445.743 712.954 443.167 716.902 443.167C720.822 443.167 723.398 445.659 723.398 449.943V450.839H712.394C712.534 453.471 713.794 455.739 717.238 455.739C719.534 455.739 721.074 454.619 721.578 452.491H723.874C723.342 454.647 721.662 457.643 717.238 457.643C712.254 457.643 710.154 454.227 710.154 450.223ZM712.394 449.103H721.158C721.158 446.863 719.674 445.099 716.902 445.099C714.158 445.099 712.394 446.863 712.394 449.103ZM727.458 457.363V445.099C727.458 443.783 728.074 443.139 729.39 443.195L737.118 443.447V445.407L729.754 445.155V457.363H727.458ZM740.326 457.643C739.01 457.643 738.002 456.635 738.002 455.291C738.002 454.003 739.01 452.995 740.326 452.995C741.614 452.995 742.65 454.003 742.65 455.291C742.65 456.635 741.614 457.643 740.326 457.643Z" fill="black"/>
<line x1="0.585983" y1="126.673" x2="997.899" y2="126.673" stroke="black"/>
<line x1="0.585983" y1="219.358" x2="997.899" y2="219.358" stroke="black"/>
<line x1="1.68678" y1="313.121" x2="999" y2="313.121" stroke="black"/>
<line x1="500.843" y1="127.173" x2="500.843" y2="219.858" stroke="black"/>
<path d="M608.514 180.427V160.687H615.066C619.77 160.687 622.766 161.779 622.766 166.203C622.766 169.171 621.226 170.487 619.098 170.851V171.523H621.45C622.57 171.523 623.018 171.971 623.018 173.007V180.427H620.722V172.503H610.81V180.427H608.514ZM610.81 170.543H615.066C618.426 170.543 620.47 170.207 620.47 166.595C620.47 162.955 618.426 162.647 615.066 162.647H610.81V170.543ZM626.558 173.287C626.558 168.807 629.358 166.231 633.306 166.231C637.226 166.231 639.802 168.723 639.802 173.007V173.903H628.798C628.938 176.535 630.198 178.803 633.642 178.803C635.938 178.803 637.478 177.683 637.982 175.555H640.278C639.746 177.711 638.066 180.707 633.642 180.707C628.658 180.707 626.558 177.291 626.558 173.287ZM628.798 172.167H637.562C637.562 169.927 636.078 168.163 633.306 168.163C630.562 168.163 628.798 169.927 628.798 172.167ZM654.866 176.815C654.866 178.915 653.55 180.707 649.378 180.707C644.87 180.707 643.022 178.607 643.022 175.303H645.318C645.318 177.711 646.718 178.831 649.406 178.831C651.562 178.831 652.57 178.327 652.57 176.899C652.57 175.079 650.694 174.771 648.426 174.071C645.794 173.231 643.666 172.419 643.666 169.899C643.666 167.687 645.542 166.231 648.734 166.231C653.074 166.231 654.39 168.611 654.39 170.907H652.094C652.094 169.031 650.946 168.107 648.734 168.107C647.194 168.107 645.962 168.555 645.962 169.815C645.962 171.159 646.914 171.579 649.154 172.307C651.898 173.203 654.866 173.819 654.866 176.815ZM662.342 164.299C661.194 164.299 660.326 163.459 660.326 162.339C660.326 161.275 661.194 160.407 662.342 160.407C663.462 160.407 664.358 161.275 664.358 162.339C664.358 163.459 663.462 164.299 662.342 164.299ZM657.694 180.427V178.467H661.614V168.219L658.73 168.471V166.511L661.95 166.231C663.266 166.119 663.77 166.847 663.77 167.911V178.467H667.69V180.427H657.694ZM684.521 180.427H682.225V178.383L682.617 176.815H681.945C681.357 178.971 679.481 180.707 676.317 180.707C672.285 180.707 669.681 177.599 669.681 173.455C669.681 169.339 672.285 166.231 676.317 166.231C679.481 166.231 681.357 167.967 681.945 170.151H682.617L682.225 168.555V159.847H684.521V180.427ZM682.225 173.455C682.225 169.759 679.873 168.191 676.989 168.191C674.105 168.191 671.977 169.759 671.977 173.455C671.977 177.179 674.105 178.747 676.989 178.747C679.873 178.747 682.225 177.179 682.225 173.455ZM688.312 173.287C688.312 168.807 691.112 166.231 695.06 166.231C698.98 166.231 701.556 168.723 701.556 173.007V173.903H690.552C690.692 176.535 691.952 178.803 695.396 178.803C697.692 178.803 699.232 177.683 699.736 175.555H702.032C701.5 177.711 699.82 180.707 695.396 180.707C690.412 180.707 688.312 177.291 688.312 173.287ZM690.552 172.167H699.316C699.316 169.927 697.832 168.163 695.06 168.163C692.316 168.163 690.552 169.927 690.552 172.167ZM712.924 168.191C709.984 168.191 707.912 170.515 707.912 174.267V180.427H705.616V166.511H707.912V168.919L707.548 170.515H708.192C708.752 167.995 710.516 166.231 713.54 166.231C716.676 166.231 718.72 168.051 718.72 171.915V180.427H716.452V172.223C716.452 169.311 715.304 168.191 712.924 168.191ZM722.292 173.455C722.292 169.451 724.896 166.231 729.404 166.231C732.092 166.231 735.536 167.743 735.9 171.775H733.576C733.184 169.115 731.42 168.191 729.404 168.191C726.1 168.191 724.588 170.599 724.588 173.455C724.588 176.339 726.1 178.747 729.404 178.747C731.42 178.747 733.184 177.823 733.576 175.163H735.9C735.536 179.195 732.092 180.707 729.404 180.707C724.896 180.707 722.292 177.487 722.292 173.455ZM738.927 173.287C738.927 168.807 741.727 166.231 745.675 166.231C749.595 166.231 752.171 168.723 752.171 173.007V173.903H741.167C741.307 176.535 742.567 178.803 746.011 178.803C748.307 178.803 749.847 177.683 750.351 175.555H752.647C752.115 177.711 750.435 180.707 746.011 180.707C741.027 180.707 738.927 177.291 738.927 173.287ZM741.167 172.167H749.931C749.931 169.927 748.447 168.163 745.675 168.163C742.931 168.163 741.167 169.927 741.167 172.167ZM759.191 170.879C757.875 170.879 756.867 169.871 756.867 168.555C756.867 167.267 757.875 166.231 759.191 166.231C760.479 166.231 761.515 167.267 761.515 168.555C761.515 169.871 760.479 170.879 759.191 170.879ZM759.191 180.707C757.875 180.707 756.867 179.699 756.867 178.355C756.867 177.067 757.875 176.059 759.191 176.059C760.479 176.059 761.515 177.067 761.515 178.355C761.515 179.699 760.479 180.707 759.191 180.707ZM776.048 180.427V160.687H781.284C786.1 160.687 788.872 161.639 788.872 165.531C788.872 168.387 786.968 169.563 784.924 169.703V170.375C787.948 170.431 790.328 171.663 790.328 175.191C790.328 179.167 787.332 180.427 782.544 180.427H776.048ZM778.344 169.171H781.368C784.588 169.171 786.576 168.695 786.576 165.895C786.576 162.843 784.588 162.647 781.368 162.647H778.344V169.171ZM778.344 178.467H782.628C785.988 178.467 788.032 177.907 788.032 174.799C788.032 171.915 785.988 171.131 782.628 171.131H778.344V178.467ZM793.463 176.563C793.463 174.351 794.779 172.839 798.027 172.503L803.571 171.971C803.431 169.423 802.059 168.163 799.651 168.163C797.635 168.163 795.759 169.059 795.759 171.691H793.519C793.519 168.807 795.703 166.231 799.651 166.231C803.543 166.231 805.867 168.807 805.867 172.531V178.467H807.911V180.427H805.447C804.383 180.427 803.795 179.839 803.795 178.803V178.047L804.159 176.591H803.487C802.955 178.719 801.471 180.707 798.111 180.707C794.079 180.707 793.463 178.019 793.463 176.563ZM795.759 176.283C795.759 177.879 796.767 178.747 798.391 178.747C801.555 178.747 803.571 176.563 803.571 173.679L798.419 174.211C796.655 174.379 795.759 174.911 795.759 176.283ZM821.744 176.815C821.744 178.915 820.428 180.707 816.256 180.707C811.748 180.707 809.9 178.607 809.9 175.303H812.196C812.196 177.711 813.596 178.831 816.284 178.831C818.44 178.831 819.448 178.327 819.448 176.899C819.448 175.079 817.572 174.771 815.304 174.071C812.672 173.231 810.544 172.419 810.544 169.899C810.544 167.687 812.42 166.231 815.612 166.231C819.952 166.231 821.268 168.611 821.268 170.907H818.972C818.972 169.031 817.824 168.107 815.612 168.107C814.072 168.107 812.84 168.555 812.84 169.815C812.84 171.159 813.792 171.579 816.032 172.307C818.776 173.203 821.744 173.819 821.744 176.815ZM824.518 173.287C824.518 168.807 827.318 166.231 831.266 166.231C835.186 166.231 837.762 168.723 837.762 173.007V173.903H826.758C826.898 176.535 828.158 178.803 831.602 178.803C833.898 178.803 835.438 177.683 835.942 175.555H838.238C837.706 177.711 836.026 180.707 831.602 180.707C826.618 180.707 824.518 177.291 824.518 173.287ZM826.758 172.167H835.522C835.522 169.927 834.038 168.163 831.266 168.163C828.522 168.163 826.758 169.927 826.758 172.167ZM840.025 180.427V178.467H843.945V161.555L841.061 161.807V159.847L844.309 159.567C845.597 159.455 846.213 160.183 846.213 161.499V178.467H850.105V180.427H840.025Z" fill="black"/>
</svg>
