<svg width="115" height="115" viewBox="0 0 115 115" fill="none" xmlns="http://www.w3.org/2000/svg">
<path d="M112.2 60.2984C113.746 60.2984 115 59.0446 115 57.498C115 55.9513 113.746 54.6975 112.2 54.6975C110.653 54.6975 109.399 55.9513 109.399 57.498C109.399 59.0446 110.653 60.2984 112.2 60.2984Z" fill="black"/>
<path d="M109.411 43.0101C110.958 43.0101 112.211 41.7563 112.211 40.2096C112.211 38.663 110.958 37.4092 109.411 37.4092C107.864 37.4092 106.61 38.663 106.61 40.2096C106.61 41.7563 107.864 43.0101 109.411 43.0101Z" fill="black"/>
<path d="M101.646 27.9966C103.192 27.9966 104.446 26.7428 104.446 25.1962C104.446 23.6496 103.192 22.3958 101.646 22.3958C100.099 22.3958 98.8451 23.6496 98.8451 25.1962C98.8451 26.7428 100.099 27.9966 101.646 27.9966Z" fill="black"/>
<path d="M89.8039 16.1548C91.3505 16.1548 92.6043 14.901 92.6043 13.3544C92.6043 11.8078 91.3505 10.554 89.8039 10.554C88.2572 10.554 87.0034 11.8078 87.0034 13.3544C87.0034 14.901 88.2572 16.1548 89.8039 16.1548Z" fill="black"/>
<path d="M74.7904 8.38947C76.3371 8.38947 77.5909 7.13566 77.5909 5.58902C77.5909 4.04238 76.3371 2.78857 74.7904 2.78857C73.2438 2.78857 71.99 4.04238 71.99 5.58902C71.99 7.13566 73.2438 8.38947 74.7904 8.38947Z" fill="black"/>
<path d="M57.4981 5.60089C59.0447 5.60089 60.2985 4.34709 60.2985 2.80045C60.2985 1.2538 59.0447 0 57.4981 0C55.9514 0 54.6976 1.2538 54.6976 2.80045C54.6976 4.34709 55.9514 5.60089 57.4981 5.60089Z" fill="black"/>
<path d="M40.2095 8.38947C41.7561 8.38947 43.01 7.13566 43.01 5.58902C43.01 4.04238 41.7561 2.78857 40.2095 2.78857C38.6629 2.78857 37.4091 4.04238 37.4091 5.58902C37.4091 7.13566 38.6629 8.38947 40.2095 8.38947Z" fill="black"/>
<path d="M25.1961 16.1548C26.7427 16.1548 27.9965 14.901 27.9965 13.3544C27.9965 11.8078 26.7427 10.554 25.1961 10.554C23.6494 10.554 22.3956 11.8078 22.3956 13.3544C22.3956 14.901 23.6494 16.1548 25.1961 16.1548Z" fill="black"/>
<path d="M13.3544 27.9966C14.901 27.9966 16.1548 26.7428 16.1548 25.1962C16.1548 23.6496 14.901 22.3958 13.3544 22.3958C11.8078 22.3958 10.554 23.6496 10.554 25.1962C10.554 26.7428 11.8078 27.9966 13.3544 27.9966Z" fill="black"/>
<path d="M5.58902 43.0101C7.13566 43.0101 8.38947 41.7563 8.38947 40.2096C8.38947 38.663 7.13566 37.4092 5.58902 37.4092C4.04238 37.4092 2.78857 38.663 2.78857 40.2096C2.78857 41.7563 4.04238 43.0101 5.58902 43.0101Z" fill="black"/>
<path d="M2.80045 60.2984C4.34709 60.2984 5.60089 59.0446 5.60089 57.498C5.60089 55.9513 4.34709 54.6975 2.80045 54.6975C1.2538 54.6975 0 55.9513 0 57.498C0 59.0446 1.2538 60.2984 2.80045 60.2984Z" fill="black"/>
<path d="M91.4193 60.2984C92.966 60.2984 94.2198 59.0446 94.2198 57.498C94.2198 55.9513 92.966 54.6975 91.4193 54.6975C89.8727 54.6975 88.6189 55.9513 88.6189 57.498C88.6189 59.0446 89.8727 60.2984 91.4193 60.2984Z" fill="black"/>
<path d="M86.7862 43.1798C88.3328 43.1798 89.5866 41.9259 89.5866 40.3793C89.5866 38.8327 88.3328 37.5789 86.7862 37.5789C85.2395 37.5789 83.9857 38.8327 83.9857 40.3793C83.9857 41.9259 85.2395 43.1798 86.7862 43.1798Z" fill="black"/>
<path d="M74.6206 31.0142C76.1673 31.0142 77.4211 29.7604 77.4211 28.2138C77.4211 26.6671 76.1673 25.4133 74.6206 25.4133C73.074 25.4133 71.8202 26.6671 71.8202 28.2138C71.8202 29.7604 73.074 31.0142 74.6206 31.0142Z" fill="black"/>
<path d="M57.4981 26.3812C59.0447 26.3812 60.2985 25.1274 60.2985 23.5807C60.2985 22.0341 59.0447 20.7803 57.4981 20.7803C55.9514 20.7803 54.6976 22.0341 54.6976 23.5807C54.6976 25.1274 55.9514 26.3812 57.4981 26.3812Z" fill="black"/>
<path d="M40.3793 31.0142C41.9259 31.0142 43.1798 29.7604 43.1798 28.2138C43.1798 26.6671 41.9259 25.4133 40.3793 25.4133C38.8327 25.4133 37.5789 26.6671 37.5789 28.2138C37.5789 29.7604 38.8327 31.0142 40.3793 31.0142Z" fill="black"/>
<path d="M28.2138 43.1798C29.7604 43.1798 31.0142 41.9259 31.0142 40.3793C31.0142 38.8327 29.7604 37.5789 28.2138 37.5789C26.6671 37.5789 25.4133 38.8327 25.4133 40.3793C25.4133 41.9259 26.6671 43.1798 28.2138 43.1798Z" fill="black"/>
<path d="M23.5806 60.2984C25.1272 60.2984 26.381 59.0446 26.381 57.498C26.381 55.9513 25.1272 54.6975 23.5806 54.6975C22.034 54.6975 20.7802 55.9513 20.7802 57.498C20.7802 59.0446 22.034 60.2984 23.5806 60.2984Z" fill="black"/>
<path d="M70.6155 60.2945C72.1622 60.2945 73.416 59.0407 73.416 57.494C73.416 55.9474 72.1622 54.6936 70.6155 54.6936C69.0689 54.6936 67.8151 55.9474 67.8151 57.494C67.8151 59.0407 69.0689 60.2945 70.6155 60.2945Z" fill="black"/>
<path d="M57.4861 47.1732C59.0328 47.1732 60.2866 45.9194 60.2866 44.3727C60.2866 42.8261 59.0328 41.5723 57.4861 41.5723C55.9395 41.5723 54.6857 42.8261 54.6857 44.3727C54.6857 45.9194 55.9395 47.1732 57.4861 47.1732Z" fill="black"/>
<path d="M44.3648 60.2984C45.9114 60.2984 47.1652 59.0446 47.1652 57.498C47.1652 55.9513 45.9114 54.6975 44.3648 54.6975C42.8181 54.6975 41.5643 55.9513 41.5643 57.498C41.5643 59.0446 42.8181 60.2984 44.3648 60.2984Z" fill="black"/>
<path d="M5.58902 77.5909C7.13566 77.5909 8.38947 76.3371 8.38947 74.7904C8.38947 73.2438 7.13566 71.99 5.58902 71.99C4.04238 71.99 2.78857 73.2438 2.78857 74.7904C2.78857 76.3371 4.04238 77.5909 5.58902 77.5909Z" fill="black"/>
<path d="M13.3544 92.6043C14.901 92.6043 16.1548 91.3505 16.1548 89.8039C16.1548 88.2572 14.901 87.0034 13.3544 87.0034C11.8078 87.0034 10.554 88.2572 10.554 89.8039C10.554 91.3505 11.8078 92.6043 13.3544 92.6043Z" fill="black"/>
<path d="M25.1961 104.446C26.7427 104.446 27.9965 103.192 27.9965 101.646C27.9965 100.099 26.7427 98.8452 25.1961 98.8452C23.6494 98.8452 22.3956 100.099 22.3956 101.646C22.3956 103.192 23.6494 104.446 25.1961 104.446Z" fill="black"/>
<path d="M40.2095 112.211C41.7561 112.211 43.01 110.957 43.01 109.411C43.01 107.864 41.7561 106.61 40.2095 106.61C38.6629 106.61 37.4091 107.864 37.4091 109.411C37.4091 110.957 38.6629 112.211 40.2095 112.211Z" fill="black"/>
<path d="M57.4981 115C59.0447 115 60.2985 113.746 60.2985 112.199C60.2985 110.653 59.0447 109.399 57.4981 109.399C55.9514 109.399 54.6976 110.653 54.6976 112.199C54.6976 113.746 55.9514 115 57.4981 115Z" fill="black"/>
<path d="M74.7904 112.211C76.3371 112.211 77.5909 110.957 77.5909 109.411C77.5909 107.864 76.3371 106.61 74.7904 106.61C73.2438 106.61 71.99 107.864 71.99 109.411C71.99 110.957 73.2438 112.211 74.7904 112.211Z" fill="black"/>
<path d="M89.8039 104.446C91.3505 104.446 92.6043 103.192 92.6043 101.646C92.6043 100.099 91.3505 98.8452 89.8039 98.8452C88.2572 98.8452 87.0034 100.099 87.0034 101.646C87.0034 103.192 88.2572 104.446 89.8039 104.446Z" fill="black"/>
<path d="M101.646 92.6043C103.192 92.6043 104.446 91.3505 104.446 89.8039C104.446 88.2572 103.192 87.0034 101.646 87.0034C100.099 87.0034 98.8451 88.2572 98.8451 89.8039C98.8451 91.3505 100.099 92.6043 101.646 92.6043Z" fill="black"/>
<path d="M109.411 77.5909C110.958 77.5909 112.211 76.3371 112.211 74.7904C112.211 73.2438 110.958 71.99 109.411 71.99C107.864 71.99 106.61 73.2438 106.61 74.7904C106.61 76.3371 107.864 77.5909 109.411 77.5909Z" fill="black"/>
<path d="M28.2138 77.4212C29.7604 77.4212 31.0142 76.1674 31.0142 74.6208C31.0142 73.0741 29.7604 71.8203 28.2138 71.8203C26.6671 71.8203 25.4133 73.0741 25.4133 74.6208C25.4133 76.1674 26.6671 77.4212 28.2138 77.4212Z" fill="black"/>
<path d="M40.3793 89.5867C41.9259 89.5867 43.1798 88.3329 43.1798 86.7863C43.1798 85.2396 41.9259 83.9858 40.3793 83.9858C38.8327 83.9858 37.5789 85.2396 37.5789 86.7863C37.5789 88.3329 38.8327 89.5867 40.3793 89.5867Z" fill="black"/>
<path d="M57.4981 94.22C59.0447 94.22 60.2985 92.9662 60.2985 91.4196C60.2985 89.8729 59.0447 88.6191 57.4981 88.6191C55.9514 88.6191 54.6976 89.8729 54.6976 91.4196C54.6976 92.9662 55.9514 94.22 57.4981 94.22Z" fill="black"/>
<path d="M74.6206 89.5867C76.1673 89.5867 77.4211 88.3329 77.4211 86.7863C77.4211 85.2396 76.1673 83.9858 74.6206 83.9858C73.074 83.9858 71.8202 85.2396 71.8202 86.7863C71.8202 88.3329 73.074 89.5867 74.6206 89.5867Z" fill="black"/>
<path d="M86.7862 77.4212C88.3328 77.4212 89.5866 76.1674 89.5866 74.6208C89.5866 73.0741 88.3328 71.8203 86.7862 71.8203C85.2395 71.8203 83.9857 73.0741 83.9857 74.6208C83.9857 76.1674 85.2395 77.4212 86.7862 77.4212Z" fill="black"/>
<path d="M57.5138 73.4278C59.0605 73.4278 60.3143 72.174 60.3143 70.6273C60.3143 69.0807 59.0605 67.8269 57.5138 67.8269C55.9672 67.8269 54.7134 69.0807 54.7134 70.6273C54.7134 72.174 55.9672 73.4278 57.5138 73.4278Z" fill="black"/>
</svg>
