<svg width="59" height="167" viewBox="0 0 59 167" fill="none" xmlns="http://www.w3.org/2000/svg">
<path d="M26.072 0.885349C26.4469 0.307494 27.2008 0.15337 27.7559 0.541103C28.311 0.928836 28.457 1.7116 28.0821 2.28946L26.072 0.885349ZM4.89323 167L6.94337 152.601L17.9164 161.606L4.89323 167ZM28.0821 2.28946C16.134 20.7037 9.06267 34.1225 5.53053 43.8616C1.97423 53.6672 2.12643 59.4106 4.06349 62.7751C5.98233 66.1079 9.94681 67.6037 15.3723 68.0769C20.7601 68.5468 27.119 67.9768 33.3792 67.6206C39.534 67.2705 45.6537 67.1214 50.2199 68.5933C52.5341 69.3393 54.5472 70.5301 55.9593 72.41C57.3806 74.302 58.0943 76.7604 58.0368 79.8409C57.9235 85.9079 54.8125 94.676 47.7003 107.316C40.5595 120.008 29.2829 136.775 12.6109 158.894L10.7027 157.344C27.3461 135.263 38.5465 118.599 45.6071 106.05C52.6963 93.4501 55.5113 85.1691 55.6115 79.7998C55.6607 77.1623 55.0531 75.3059 54.0452 73.9641C53.0282 72.6103 51.5045 71.6483 49.4945 71.0003C45.4123 69.6844 39.734 69.7825 33.5044 70.1369C27.3803 70.4853 20.7684 71.077 15.162 70.5881C9.5932 70.1024 4.53998 68.5187 1.98068 64.0735C-0.560415 59.6599 -0.346798 52.9268 3.26088 42.9794C6.89272 32.9655 14.088 19.3549 26.072 0.885349L28.0821 2.28946Z" fill="black"/>
</svg>
